HIERARCHY
ROOT Hips
{
    OFFSET 0.000000 0.000000 0.000000
    CHANNELS 6 Xposition Yposition Zposition Zrotation Xrotation Yrotation
    JOINT Spine
    {
        OFFSET -0.000000 14.517291 0.000000
        CHANNELS 3 Zrotation Xrotation Yrotation
        JOINT Spine1
        {
            OFFSET -0.000000 37.558300 0.000000
            CHANNELS 3 Zrotation Xrotation Yrotation
            JOINT Neck
            {
                OFFSET -0.000000 37.404057 3.400369
                CHANNELS 3 Zrotation Xrotation Yrotation
                JOINT Head
                {
                    OFFSET -0.000000 24.785618 -3.540803
                    CHANNELS 3 Zrotation Xrotation Yrotation
                    End Site
                    {
                        OFFSET -0.000000 35.408028 0.000000
                    }
                }
            }
            JOINT LeftShoulder
            {
                OFFSET 6.992933 33.973492 -0.192664
                CHANNELS 3 Zrotation Xrotation Yrotation
                JOINT LeftArm
                {
                    OFFSET 21.527611 0.000000 0.000000
                    CHANNELS 3 Zrotation Xrotation Yrotation
                    JOINT LeftForeArm
                    {
                        OFFSET 56.353916 0.000000 0.000000
                        CHANNELS 3 Zrotation Xrotation Yrotation
                        JOINT LeftHand
                        {
                            OFFSET 47.774071 0.000000 0.000000
                            CHANNELS 3 Zrotation Xrotation Yrotation
                            End Site
                            {
                                OFFSET 26.556021 0.000000 0.000000
                            }
                        }
                    }
                }
            }
            JOINT RightShoulder
            {
                OFFSET -7.065357 33.973492 -0.192664
                CHANNELS 3 Zrotation Xrotation Yrotation
                JOINT RightArm
                {
                    OFFSET -21.527611 0.000000 0.000000
                    CHANNELS 3 Zrotation Xrotation Yrotation
                    JOINT RightForeArm
                    {
                        OFFSET -56.353916 0.000000 0.000000
                        CHANNELS 3 Zrotation Xrotation Yrotation
                        JOINT RightHand
                        {
                            OFFSET -47.774071 0.000000 0.000000
                            CHANNELS 3 Zrotation Xrotation Yrotation
                            End Site
                            {
                                OFFSET -26.556021 0.000000 0.000000
                            }
                        }
                    }
                }
            }
        }
    }
    JOINT LeftUpLeg
    {
        OFFSET 17.704014 0.000000 0.000000
        CHANNELS 3 Zrotation Xrotation Yrotation
        JOINT LeftLeg
        {
            OFFSET -0.000000 -81.181816 0.000000
            CHANNELS 3 Zrotation Xrotation Yrotation
            JOINT LeftFoot
            {
                OFFSET -0.000000 -62.821102 0.000000
                CHANNELS 3 Zrotation Xrotation Yrotation
                JOINT LeftToeBase
                {
                    OFFSET -0.000000 -11.507608 26.556021
                    CHANNELS 3 Zrotation Xrotation Yrotation
                    End Site
                    {
                        OFFSET -0.000000 0.000000 7.081605
                    }
                }
            }
        }
    }
    JOINT RightUpLeg
    {
        OFFSET -17.704014 0.000000 0.000000
        CHANNELS 3 Zrotation Xrotation Yrotation
        JOINT RightLeg
        {
            OFFSET -0.000000 -81.181816 0.000000
            CHANNELS 3 Zrotation Xrotation Yrotation
            JOINT RightFoot
            {
                OFFSET -0.000000 -62.821102 0.000000
                CHANNELS 3 Zrotation Xrotation Yrotation
                JOINT RightToeBase
                {
                    OFFSET -0.000000 -11.507608 26.556021
                    CHANNELS 3 Zrotation Xrotation Yrotation
                    End Site
                    {
                        OFFSET -0.000000 0.000000 7.081605
                    }
                }
            }
        }
    }
}
MOTION
Frames:    6
Frame Time:    0.008333
-6.770949    153.791122    -110.534752    -1.584895    -1.764204    47.963135    -2.187481    -0.151830    -2.923022    -5.137283    2.198668    -0.875680    5.366492    4.385229    -21.477552    15.055931    -1.844562    -20.681435    5.868988    9.683203    -17.539625    -35.813240    23.075655    -44.332993    -9.517629    -6.698544    -118.076332    4.471515    -22.302324    -4.355572    -14.102025    -3.718220    -7.676184    19.268337    -21.830883    48.828087    -15.576333    -13.644794    49.686279    1.020190    -6.204306    32.069061    24.268864    -5.752358    16.428064    -17.177702    34.068390    -7.690949    -0.168528    -21.594561    47.224213    0.000000    0.000000    0.000000    -15.763971    -25.652061    -18.862732    17.064590    36.786060    -18.164480    -3.418723    -3.354738    -14.318965    0.000000    0.000000    0.000000    
-6.719404    153.846161    -110.665535    -1.556824    -1.773276    47.928715    -2.189063    -0.147975    -2.906704    -5.120994    2.196679    -0.870714    5.394528    4.360723    -21.474821    14.988436    -1.799955    -20.698805    5.894116    9.716785    -17.567286    -35.858883    23.162624    -44.325581    -9.463750    -6.705216    -118.115448    4.514611    -22.235826    -4.344109    -14.086529    -3.696881    -7.694364    19.249287    -21.856440    48.855366    -15.499346    -13.585802    49.802361    1.026145    -6.159142    32.078529    24.167082    -5.725618    16.395340    -17.125673    34.026222    -7.661425    -0.145964    -21.569098    47.227242    0.000000    0.000000    0.000000    -15.774620    -25.599440    -18.788097    17.016602    36.645237    -18.152063    -3.354046    -3.220707    -14.332417    0.000000    0.000000    0.000000    
-6.676687    153.898315    -110.791733    -1.532394    -1.774831    47.902676    -2.188174    -0.141440    -2.882035    -5.119615    2.182504    -0.863141    5.435306    4.330656    -21.471302    14.915981    -1.753277    -20.718025    5.933554    9.754396    -17.606165    -35.870457    23.257801    -44.344650    -9.425331    -6.732533    -118.164146    4.619962    -22.217491    -4.317333    -14.072513    -3.700474    -7.715575    19.242325    -21.886524    48.856190    -15.376575    -13.499881    49.929718    1.023045    -6.109563    32.031731    24.066738    -5.715086    16.334328    -17.089031    33.984974    -7.631106    -0.125785    -21.540207    47.247097    0.000000    0.000000    0.000000    -15.771789    -25.556841    -18.772547    16.890720    36.525906    -18.090229    -3.279826    -3.113700    -14.302340    0.000000    0.000000    0.000000    
-6.620774    153.941498    -110.892822    -1.527361    -1.781937    47.858021    -2.187141    -0.195888    -2.857468    -5.077745    2.226663    -0.853421    5.448530    4.304060    -21.458939    14.845653    -1.735106    -20.720669    5.932904    9.750528    -17.636730    -35.873657    23.355160    -44.307621    -9.355411    -6.792727    -118.222321    4.437901    -22.175976    -4.384775    -14.080644    -3.692501    -7.715895    19.212801    -21.925741    48.858444    -15.278878    -13.420258    50.015446    0.977554    -6.073439    32.034630    23.988537    -5.689530    16.303329    -17.034267    33.940907    -7.629957    -0.088491    -21.519226    47.261639    0.000000    0.000000    0.000000    -15.739118    -25.511494    -18.765816    16.751659    36.398640    -17.997482    -3.241063    -3.040459    -14.266658    0.000000    0.000000    0.000000    
-6.584498    153.993637    -111.010742    -1.526110    -1.796399    47.844376    -2.182588    -0.202643    -2.852522    -5.039837    2.221731    -0.852703    5.450362    4.319678    -21.469482    14.846039    -1.732992    -20.731398    5.969160    9.753291    -17.675045    -35.896988    23.398653    -44.296295    -9.316265    -6.759212    -118.263489    4.410689    -22.095490    -4.436607    -14.091142    -3.720072    -7.729465    19.184856    -21.926105    48.859066    -15.175924    -13.329046    50.060883    0.912981    -6.039743    32.076786    23.912964    -5.689952    16.217697    -16.977434    33.902420    -7.679389    -0.057431    -21.509478    47.326630    0.000000    0.000000    0.000000    -15.721042    -25.455446    -18.747946    16.666719    36.259071    -17.977867    -3.157265    -2.953581    -14.222255    0.000000    0.000000    0.000000    
-6.548891    154.042145    -111.119995    -1.515640    -1.814739    47.846684    -2.178257    -0.210989    -2.857449    -5.027742    2.231286    -0.854177    5.487319    4.336196    -21.473400    14.842387    -1.740276    -20.738420    6.036447    9.769659    -17.690573    -35.889214    23.437799    -44.359890    -9.260333    -6.777169    -118.235107    4.472527    -22.022482    -4.582903    -14.102653    -3.792844    -7.713483    19.141827    -21.851877    48.798679    -15.141131    -13.289717    50.080341    0.972862    -5.995885    32.064392    23.835609    -5.684769    16.102184    -16.945314    33.845516    -7.697607    0.018582    -21.470396    47.393562    0.000000    0.000000    0.000000    -15.709521    -25.384405    -18.796444    16.542883    36.130398    -17.879871    -3.111820    -2.862738    -14.193695    0.000000    0.000000    0.000000    
